<svg xmlns="http://www.w3.org/2000/svg" viewBox="0 0 64 64">
<defs><linearGradient id="g" x1="10" y1="54" x2="52" y2="10"><stop stop-color="#168FD8"/><stop offset=".55" stop-color="#31B9B0"/><stop offset="1" stop-color="#9BD75B"/></linearGradient></defs>
<rect width="64" height="64" rx="14" fill="#F7FCFE"/>
<circle cx="45" cy="13" r="5" fill="#F7BE48"/>
<path d="M30 49C18 43 12 32 15 20c9 1 15 5 19 13 4-11 11-18 23-20 0 16-7 28-22 36-2 1-4 1-5 0Z" fill="url(#g)"/>
<path d="M9 54c14-5 27-5 39 0 4 2 8 2 12 0-10 9-22 10-34 5-6-2-12-2-17 0Z" fill="#279DDA"/>
</svg>